<svg preserveAspectRatio="none" width="100%" height="100%" overflow="visible" style="display: block;" viewBox="0 0 21.3333 21.3333" fill="none" xmlns="http://www.w3.org/2000/svg">
<path id="Vector" d="M17.9841 0C16.0423 1.94211 13.4101 3.03102 10.665 3.03102C7.91992 3.03102 5.28769 1.94211 3.34588 0C2.23059 1.11547 1.11529 2.23094 0 3.34641C1.11529 4.46187 2.23059 5.57734 3.34588 6.69281C3.52513 6.51354 3.70437 6.33427 3.88362 6.155C5.8553 7.14763 8.0195 7.6954 10.2235 7.75848C6.8179 11.168 3.40895 14.5774 0 17.9869C1.11529 19.1024 2.23059 20.2179 3.34588 21.3333C5.28769 19.3912 7.91992 18.3023 10.665 18.3023C13.4101 18.3023 16.0423 19.3945 17.9841 21.3333C19.0994 20.2179 20.2147 19.1024 21.33 17.9869L17.9841 14.6405L17.4464 15.1783C15.4747 14.1857 13.3105 13.6379 11.1065 13.5749C14.5154 10.1654 17.9244 6.75589 21.3333 3.34641C20.218 2.23094 19.1027 1.11547 17.9874 0H17.9841Z" fill="url(#paint0_linear_0_272)"/>
<defs>
<linearGradient id="paint0_linear_0_272" x1="-10.7481" y1="6.97087" x2="9.17207" y2="31.2934" gradientUnits="userSpaceOnUse">
<stop stop-color="#884FDD"/>
<stop offset="1" stop-color="#0078FF"/>
</linearGradient>
</defs>
</svg>
